<svg width="242" height="36" viewBox="0 0 242 36" fill="none" xmlns="http://www.w3.org/2000/svg">
<path d="M5.52 35.184H-3.8147e-06L12.048 3.8147e-06H18.864L30.864 35.184H25.2L21.984 25.488H8.688L5.52 35.184ZM15.216 4.944L9.984 20.832H20.688L15.456 4.944H15.216ZM49.8457 35.184H34.8217V30.768H39.6217V4.416H34.8217V3.8147e-06H49.8457V4.416H45.0457V30.768H49.8457V35.184ZM62.5485 20.88V35.184H57.1245V3.8147e-06H72.1485C75.2525 3.8147e-06 77.7005 0.928004 79.4925 2.78401C81.2845 4.64 82.1805 7.184 82.1805 10.416C82.1805 12.976 81.6045 15.12 80.4525 16.848C79.3005 18.544 77.6045 19.696 75.3645 20.304L82.9965 35.184H76.9485L69.7965 20.88H62.5485ZM71.7645 16.272C73.2365 16.272 74.3885 15.888 75.2205 15.12C76.0845 14.32 76.5165 13.184 76.5165 11.712V9.312C76.5165 7.84 76.0845 6.72 75.2205 5.952C74.3885 5.15201 73.2365 4.75201 71.7645 4.75201H62.5485V16.272H71.7645Z" fill="#0088FF"/>
<path d="M95.4079 35.184H89.9839V3.8147e-06H95.4079V18.048H95.5999L100.688 11.664L110.384 3.8147e-06H116.768L104.096 14.832L117.68 35.184H111.152L100.304 18.576L95.4079 24.144V35.184ZM125.286 35.184H119.766L131.814 3.8147e-06H138.63L150.63 35.184H144.966L141.75 25.488H128.454L125.286 35.184ZM134.982 4.944L129.75 20.832H140.454L135.222 4.944H134.982ZM161.595 20.88V35.184H156.171V3.8147e-06H171.195C174.299 3.8147e-06 176.747 0.928004 178.539 2.78401C180.331 4.64 181.227 7.184 181.227 10.416C181.227 12.976 180.651 15.12 179.499 16.848C178.347 18.544 176.651 19.696 174.411 20.304L182.043 35.184H175.995L168.843 20.88H161.595ZM170.811 16.272C172.283 16.272 173.435 15.888 174.267 15.12C175.131 14.32 175.563 13.184 175.563 11.712V9.312C175.563 7.84 175.131 6.72 174.267 5.952C173.435 5.15201 172.283 4.75201 170.811 4.75201H161.595V16.272H170.811ZM211.331 3.8147e-06V4.8H200.675V35.184H195.251V4.8H184.595V3.8147e-06H211.331ZM215.989 35.184H210.469L222.517 3.8147e-06H229.333L241.333 35.184H235.669L232.453 25.488H219.157L215.989 35.184ZM225.685 4.944L220.453 20.832H231.157L225.925 4.944H225.685Z" fill="black"/>
</svg>
