<svg width="60" height="60" viewBox="0 0 60 60" fill="none" xmlns="http://www.w3.org/2000/svg">
<mask id="mask0_1012_12" style="mask-type:alpha" maskUnits="userSpaceOnUse" x="0" y="0" width="60" height="60">
<rect width="60" height="60" fill="#D9D9D9"/>
</mask>
<g mask="url(#mask0_1012_12)">
<path d="M16.0625 51.8125C15.8125 52.0208 15.5521 52.1875 15.2812 52.3125C15.0104 52.4375 14.7083 52.5 14.375 52.5C14.0417 52.5 13.7083 52.4271 13.375 52.2813C13.0417 52.1354 12.75 51.9375 12.5 51.6875C10.7917 49.8542 9.53125 47.9896 8.71875 46.0938C7.90625 44.1979 7.5 42.1875 7.5 40.0625C7.5 38.5208 7.72917 36.875 8.1875 35.125C8.64583 33.375 9.4375 31.1667 10.5625 28.5C11.5208 26.125 12.1875 24.3125 12.5625 23.0625C12.9375 21.8125 13.125 20.6458 13.125 19.5625C13.125 18.1458 12.8125 16.8021 12.1875 15.5313C11.5625 14.2604 10.5833 13.0208 9.25 11.8125C8.95833 11.5625 8.75 11.2813 8.625 10.9688C8.5 10.6563 8.4375 10.3333 8.4375 10C8.4375 9.66667 8.5 9.35417 8.625 9.0625C8.75 8.77083 8.91667 8.5 9.125 8.25C9.375 8 9.65625 7.8125 9.96875 7.6875C10.2813 7.5625 10.6042 7.5 10.9375 7.5C11.2708 7.5 11.5833 7.5625 11.875 7.6875C12.1667 7.8125 12.4375 7.97917 12.6875 8.1875C14.5208 9.89583 15.8854 11.6771 16.7813 13.5313C17.6771 15.3854 18.125 17.375 18.125 19.5C18.125 20.9583 17.9167 22.4896 17.5 24.0938C17.0833 25.6979 16.3333 27.7917 15.25 30.375C14.2083 32.875 13.5 34.7917 13.125 36.125C12.75 37.4583 12.5625 38.7292 12.5625 39.9375C12.5625 41.3958 12.8646 42.8229 13.4688 44.2188C14.0729 45.6146 15 46.9792 16.25 48.3125C16.4583 48.5625 16.6146 48.8333 16.7188 49.125C16.8229 49.4167 16.875 49.7083 16.875 50C16.875 50.3333 16.8125 50.6667 16.6875 51C16.5625 51.3333 16.3542 51.6042 16.0625 51.8125ZM28.25 51.8125C28 52.0208 27.7396 52.1875 27.4688 52.3125C27.1979 52.4375 26.8958 52.5 26.5625 52.5C26.2292 52.5 25.8958 52.4271 25.5625 52.2813C25.2292 52.1354 24.9375 51.9375 24.6875 51.6875C22.9792 49.8542 21.7188 47.9792 20.9063 46.0625C20.0938 44.1458 19.6875 42.125 19.6875 40C19.6875 38.4583 19.9167 36.8333 20.375 35.125C20.8333 33.4167 21.625 31.2083 22.75 28.5C23.7083 26.125 24.375 24.3021 24.75 23.0313C25.125 21.7604 25.3125 20.5833 25.3125 19.5C25.3125 18.0833 25 16.7604 24.375 15.5313C23.75 14.3021 22.7708 13.0625 21.4375 11.8125C21.1875 11.5625 20.9896 11.2708 20.8438 10.9375C20.6979 10.6042 20.625 10.2708 20.625 9.9375C20.625 9.60417 20.6875 9.30208 20.8125 9.03125C20.9375 8.76042 21.1042 8.5 21.3125 8.25C21.5625 8 21.8438 7.8125 22.1563 7.6875C22.4688 7.5625 22.7917 7.5 23.125 7.5C23.4583 7.5 23.7708 7.5625 24.0625 7.6875C24.3542 7.8125 24.625 7.97917 24.875 8.1875C26.7083 9.89583 28.0729 11.6875 28.9688 13.5625C29.8646 15.4375 30.3125 17.4167 30.3125 19.5C30.3125 20.9583 30.0938 22.4896 29.6563 24.0938C29.2188 25.6979 28.4583 27.7917 27.375 30.375C26.3333 32.875 25.625 34.7917 25.25 36.125C24.875 37.4583 24.6875 38.7292 24.6875 39.9375C24.6875 41.3958 24.9896 42.8021 25.5938 44.1563C26.1979 45.5104 27.125 46.875 28.375 48.25C28.5833 48.5 28.75 48.7708 28.875 49.0625C29 49.3542 29.0625 49.6667 29.0625 50C29.0625 50.3333 29 50.6563 28.875 50.9688C28.75 51.2813 28.5417 51.5625 28.25 51.8125ZM40.4375 51.8125C40.1875 52.0208 39.9271 52.1875 39.6563 52.3125C39.3854 52.4375 39.0833 52.5 38.75 52.5C38.4167 52.5 38.0833 52.4271 37.75 52.2813C37.4167 52.1354 37.125 51.9375 36.875 51.6875C35.1667 49.8542 33.9063 47.9896 33.0938 46.0938C32.2813 44.1979 31.875 42.1875 31.875 40.0625C31.875 38.5208 32.1042 36.875 32.5625 35.125C33.0208 33.375 33.8125 31.1667 34.9375 28.5C35.8958 26.125 36.5625 24.3125 36.9375 23.0625C37.3125 21.8125 37.5 20.6458 37.5 19.5625C37.5 18.1458 37.1875 16.8021 36.5625 15.5313C35.9375 14.2604 34.9583 13.0208 33.625 11.8125C33.375 11.5625 33.1875 11.2813 33.0625 10.9688C32.9375 10.6563 32.875 10.3333 32.875 10C32.875 9.66667 32.9271 9.36458 33.0313 9.09375C33.1354 8.82292 33.2917 8.5625 33.5 8.3125C33.75 8.0625 34.0417 7.86458 34.375 7.71875C34.7083 7.57292 35.0417 7.5 35.375 7.5C35.7083 7.5 36.0104 7.5625 36.2812 7.6875C36.5521 7.8125 36.8125 7.97917 37.0625 8.1875C38.8958 9.89583 40.2604 11.6875 41.1563 13.5625C42.0521 15.4375 42.5 17.4167 42.5 19.5C42.5 20.9583 42.2813 22.4896 41.8438 24.0938C41.4063 25.6979 40.6458 27.8125 39.5625 30.4375C38.5208 32.9375 37.8125 34.8542 37.4375 36.1875C37.0625 37.5208 36.875 38.7708 36.875 39.9375C36.875 41.3958 37.1875 42.8229 37.8125 44.2188C38.4375 45.6146 39.375 46.9792 40.625 48.3125C40.8333 48.5625 40.9896 48.8333 41.0938 49.125C41.1979 49.4167 41.25 49.7083 41.25 50C41.25 50.3333 41.1875 50.6667 41.0625 51C40.9375 51.3333 40.7292 51.6042 40.4375 51.8125ZM50 27.5C49.2917 27.5 48.6979 27.2604 48.2188 26.7813C47.7396 26.3021 47.5 25.7083 47.5 25C47.5 24.2917 47.7396 23.6979 48.2188 23.2187C48.6979 22.7396 49.2917 22.5 50 22.5C50.7083 22.5 51.3021 22.7396 51.7812 23.2187C52.2604 23.6979 52.5 24.2917 52.5 25C52.5 25.7083 52.2604 26.3021 51.7812 26.7813C51.3021 27.2604 50.7083 27.5 50 27.5ZM48.2188 19.2813C47.7396 18.8021 47.5 18.2083 47.5 17.5V10C47.5 9.29167 47.7396 8.69792 48.2188 8.21875C48.6979 7.73958 49.2917 7.5 50 7.5C50.7083 7.5 51.3021 7.73958 51.7812 8.21875C52.2604 8.69792 52.5 9.29167 52.5 10V17.5C52.5 18.2083 52.2604 18.8021 51.7812 19.2813C51.3021 19.7604 50.7083 20 50 20C49.2917 20 48.6979 19.7604 48.2188 19.2813Z" fill="#FFFB00"/>
</g>
</svg>
