<svg width="60" height="60" viewBox="0 0 60 60" fill="none" xmlns="http://www.w3.org/2000/svg">
<mask id="mask0_1010_40" style="mask-type:alpha" maskUnits="userSpaceOnUse" x="0" y="0" width="60" height="60">
<rect width="60" height="60" fill="#D9D9D9"/>
</mask>
<g mask="url(#mask0_1010_40)">
<path d="M29.9999 53.75C24.4582 53.75 19.7395 51.8334 15.8436 48C11.9478 44.1667 9.99988 39.5 9.99988 34C9.99988 31.375 10.5103 28.8646 11.5311 26.4688C12.552 24.0729 13.9999 21.9583 15.8749 20.125L29.9999 6.25002L44.1249 20.125C45.9999 21.9583 47.4478 24.0729 48.4686 26.4688C49.4895 28.8646 49.9999 31.375 49.9999 34C49.9999 39.5 48.052 44.1667 44.1561 48C40.2603 51.8334 35.5415 53.75 29.9999 53.75ZM40.6249 44.4688C43.5415 41.6146 44.9999 38.125 44.9999 34C44.9999 32.0417 44.6249 30.1771 43.8749 28.4063C43.1249 26.6354 42.0415 25.0833 40.6249 23.75L29.9999 13.25L19.3749 23.75C17.9582 25.0833 16.8749 26.6354 16.1249 28.4063C15.3749 30.1771 14.9999 32.0417 14.9999 34C14.9999 38.125 16.4582 41.6146 19.3749 44.4688C22.2915 47.3229 25.8332 48.75 29.9999 48.75C34.1665 48.75 37.7082 47.3229 40.6249 44.4688Z" fill="#0088FF"/>
</g>
</svg>
