<svg width="55" height="55" viewBox="0 0 55 55" fill="none" xmlns="http://www.w3.org/2000/svg">
<path d="M32.2656 32.2656C33.6997 30.8316 34.4167 29.0903 34.4167 27.0417C34.4167 24.9931 33.6997 23.2517 32.2656 21.8177C30.8316 20.3837 29.0903 19.6667 27.0417 19.6667C24.9931 19.6667 23.2517 20.3837 21.8177 21.8177C20.3837 23.2517 19.6667 24.9931 19.6667 27.0417C19.6667 29.0903 20.3837 30.8316 21.8177 32.2656C23.2517 33.6997 24.9931 34.4167 27.0417 34.4167C29.0903 34.4167 30.8316 33.6997 32.2656 32.2656ZM18.3453 35.738C15.9484 33.3411 14.75 30.4424 14.75 27.0417C14.75 23.641 15.9484 20.7422 18.3453 18.3453C20.7422 15.9484 23.641 14.75 27.0417 14.75C30.4424 14.75 33.3411 15.9484 35.738 18.3453C38.1349 20.7422 39.3333 23.641 39.3333 27.0417C39.3333 30.4424 38.1349 33.3411 35.738 35.738C33.3411 38.1349 30.4424 39.3333 27.0417 39.3333C23.641 39.3333 20.7422 38.1349 18.3453 35.738ZM9.83333 29.5H0V24.5833H9.83333V29.5ZM54.0833 29.5H44.25V24.5833H54.0833V29.5ZM24.5833 9.83333V0H29.5V9.83333H24.5833ZM24.5833 54.0833V44.25H29.5V54.0833H24.5833ZM13.275 16.5937L7.06771 10.6323L10.5708 7.00625L16.4708 13.1521L13.275 16.5937ZM43.5125 47.0771L37.551 40.8698L40.8083 37.4896L47.0156 43.451L43.5125 47.0771ZM37.4896 13.275L43.451 7.06771L47.0771 10.5708L40.9312 16.4708L37.4896 13.275ZM7.00625 43.5125L13.2135 37.551L16.5937 40.8083L10.6323 47.0156L7.00625 43.5125Z" fill="#FFFB00"/>
</svg>
