<svg width="59" height="59" viewBox="0 0 59 59" fill="none" xmlns="http://www.w3.org/2000/svg">
<mask id="mask0_1005_188" style="mask-type:alpha" maskUnits="userSpaceOnUse" x="0" y="0" width="59" height="59">
<rect width="59" height="59" fill="#D1CCC6"/>
</mask>
<g mask="url(#mask0_1005_188)">
<path d="M29.7459 54.0833C26.3042 54.0833 23.0777 53.4278 20.0662 52.1167C17.0548 50.8055 14.4325 49.0335 12.1996 46.8005C9.96657 44.5675 8.19453 41.9453 6.88341 38.9338C5.5723 35.9224 4.91675 32.6958 4.91675 29.2542C4.91675 23.2722 6.82196 17.997 10.6324 13.4286C14.4428 8.86023 19.298 6.02291 25.198 4.91666C24.4605 8.97291 24.6858 12.937 25.874 16.8088C27.0622 20.6807 29.1108 24.0712 32.0199 26.9802C34.9289 29.8892 38.3194 31.9378 42.1912 33.126C46.0631 34.3142 50.0272 34.5396 54.0834 33.8021C53.0181 39.7021 50.1911 44.5573 45.6022 48.3677C41.0133 52.1781 35.7279 54.0833 29.7459 54.0833ZM29.7459 49.1667C33.3515 49.1667 36.6907 48.2653 39.7636 46.4625C42.8365 44.6597 45.2539 42.1809 47.0157 39.026C43.4921 38.6983 40.1529 37.8071 36.998 36.3526C33.8431 34.8981 31.0161 32.9212 28.5167 30.4219C26.0174 27.9226 24.0303 25.0955 22.5553 21.9406C21.0803 18.7858 20.1994 15.4465 19.9126 11.9229C16.7577 13.6847 14.2891 16.1123 12.5069 19.2057C10.7246 22.2991 9.83341 25.6486 9.83341 29.2542C9.83341 34.7854 11.7694 39.487 15.6412 43.3588C19.5131 47.2307 24.2147 49.1667 29.7459 49.1667Z" fill="#D1CCC6"/>
</g>
</svg>
