<svg width="60" height="60" viewBox="0 0 60 60" fill="none" xmlns="http://www.w3.org/2000/svg">
<mask id="mask0_1035_53" style="mask-type:alpha" maskUnits="userSpaceOnUse" x="0" y="0" width="60" height="60">
<rect width="60" height="60" fill="#D9D9D9"/>
</mask>
<g mask="url(#mask0_1035_53)">
<path d="M34.875 54.75C34.25 55.0833 33.6146 55.1354 32.9688 54.9062C32.3229 54.6771 31.8333 54.25 31.5 53.625L27.75 46.125C27.4167 45.5 27.3646 44.8646 27.5938 44.2188C27.8229 43.5729 28.25 43.0833 28.875 42.75C29.5 42.4167 30.1354 42.3646 30.7812 42.5938C31.4271 42.8229 31.9167 43.25 32.25 43.875L36 51.375C36.3333 52 36.3854 52.6354 36.1563 53.2812C35.9271 53.9271 35.5 54.4167 34.875 54.75ZM49.875 54.75C49.25 55.0833 48.6146 55.1354 47.9688 54.9062C47.3229 54.6771 46.8333 54.25 46.5 53.625L42.75 46.125C42.4167 45.5 42.3646 44.8646 42.5938 44.2188C42.8229 43.5729 43.25 43.0833 43.875 42.75C44.5 42.4167 45.1354 42.3646 45.7812 42.5938C46.4271 42.8229 46.9167 43.25 47.25 43.875L51 51.375C51.3333 52 51.3854 52.6354 51.1562 53.2812C50.9271 53.9271 50.5 54.4167 49.875 54.75ZM19.875 54.75C19.25 55.0833 18.6146 55.1354 17.9688 54.9062C17.3229 54.6771 16.8333 54.25 16.5 53.625L12.75 46.125C12.4167 45.5 12.3646 44.8646 12.5938 44.2188C12.8229 43.5729 13.25 43.0833 13.875 42.75C14.5 42.4167 15.1354 42.3646 15.7812 42.5938C16.4271 42.8229 16.9167 43.25 17.25 43.875L21 51.375C21.3333 52 21.3854 52.6354 21.1563 53.2812C20.9271 53.9271 20.5 54.4167 19.875 54.75ZM18.75 40C14.9583 40 11.7188 38.6562 9.03125 35.9687C6.34375 33.2812 5 30.0417 5 26.25C5 22.7917 6.14583 19.7708 8.4375 17.1875C10.7292 14.6042 13.5625 13.0833 16.9375 12.625C18.2708 10.25 20.0938 8.38542 22.4063 7.03125C24.7188 5.67708 27.25 5 30 5C33.75 5 37.0104 6.19792 39.7813 8.59375C42.5521 10.9896 44.2292 13.9792 44.8125 17.5625C47.6875 17.8125 50.1042 19 52.0625 21.125C54.0208 23.25 55 25.7917 55 28.75C55 31.875 53.9062 34.5312 51.7188 36.7188C49.5312 38.9062 46.875 40 43.75 40H18.75ZM18.75 35H43.75C45.5 35 46.9792 34.3958 48.1875 33.1875C49.3958 31.9792 50 30.5 50 28.75C50 27 49.3958 25.5208 48.1875 24.3125C46.9792 23.1042 45.5 22.5 43.75 22.5H40V20C40 17.25 39.0208 14.8958 37.0625 12.9375C35.1042 10.9792 32.75 10 30 10C28 10 26.1771 10.5417 24.5312 11.625C22.8854 12.7083 21.6458 14.1667 20.8125 16L20.1875 17.5H18.625C16.25 17.5833 14.2188 18.4687 12.5313 20.1562C10.8438 21.8438 10 23.875 10 26.25C10 28.6667 10.8542 30.7292 12.5625 32.4375C14.2708 34.1458 16.3333 35 18.75 35Z" fill="white"/>
</g>
</svg>
