<svg width="60" height="60" viewBox="0 0 60 60" fill="none" xmlns="http://www.w3.org/2000/svg">
<mask id="mask0_1035_109" style="mask-type:alpha" maskUnits="userSpaceOnUse" x="0" y="0" width="60" height="60">
<rect width="60" height="60" fill="#D9D9D9"/>
</mask>
<g mask="url(#mask0_1035_109)">
<path d="M21.1562 51.3438C18.7187 48.9062 17.5 45.9583 17.5 42.5C17.5 40.5 17.9375 38.6354 18.8125 36.9062C19.6875 35.1771 20.9167 33.7083 22.5 32.5V12.5C22.5 10.4167 23.2292 8.64583 24.6875 7.1875C26.1458 5.72917 27.9167 5 30 5C32.0833 5 33.8542 5.72917 35.3125 7.1875C36.7708 8.64583 37.5 10.4167 37.5 12.5V32.5C39.0833 33.7083 40.3125 35.1771 41.1875 36.9062C42.0625 38.6354 42.5 40.5 42.5 42.5C42.5 45.9583 41.2813 48.9062 38.8438 51.3438C36.4062 53.7812 33.4583 55 30 55C26.5417 55 23.5938 53.7812 21.1562 51.3438ZM27.5 27.5H32.5V25H30V22.5H32.5V17.5H30V15H32.5V12.5C32.5 11.7917 32.2604 11.1979 31.7812 10.7188C31.3021 10.2396 30.7083 10 30 10C29.2917 10 28.6979 10.2396 28.2188 10.7188C27.7396 11.1979 27.5 11.7917 27.5 12.5V27.5Z" fill="white"/>
</g>
</svg>
