<svg width="60" height="60" viewBox="0 0 60 60" fill="none" xmlns="http://www.w3.org/2000/svg">
<mask id="mask0_1029_63" style="mask-type:alpha" maskUnits="userSpaceOnUse" x="0" y="0" width="60" height="60">
<rect width="60" height="60" fill="#D9D9D9"/>
</mask>
<g mask="url(#mask0_1029_63)">
<path d="M28.75 50C26.6667 50 24.8958 49.2708 23.4375 47.8125C21.9792 46.3542 21.25 44.5833 21.25 42.5H26.25C26.25 43.2083 26.4896 43.8021 26.9688 44.2812C27.4479 44.7604 28.0417 45 28.75 45C29.4583 45 30.0521 44.7604 30.5313 44.2812C31.0104 43.8021 31.25 43.2083 31.25 42.5C31.25 41.7917 31.0104 41.1979 30.5313 40.7188C30.0521 40.2396 29.4583 40 28.75 40H5V35H28.75C30.8333 35 32.6042 35.7292 34.0625 37.1875C35.5208 38.6458 36.25 40.4167 36.25 42.5C36.25 44.5833 35.5208 46.3542 34.0625 47.8125C32.6042 49.2708 30.8333 50 28.75 50ZM5 25V20H38.75C39.8333 20 40.7292 19.6458 41.4375 18.9375C42.1458 18.2292 42.5 17.3333 42.5 16.25C42.5 15.1667 42.1458 14.2708 41.4375 13.5625C40.7292 12.8542 39.8333 12.5 38.75 12.5C37.6667 12.5 36.7708 12.8542 36.0625 13.5625C35.3542 14.2708 35 15.1667 35 16.25H30C30 13.7917 30.8438 11.7188 32.5312 10.0312C34.2188 8.34375 36.2917 7.5 38.75 7.5C41.2083 7.5 43.2812 8.34375 44.9688 10.0312C46.6562 11.7188 47.5 13.7917 47.5 16.25C47.5 18.7083 46.6562 20.7812 44.9688 22.4688C43.2812 24.1562 41.2083 25 38.75 25H5ZM46.25 45V40C47.3333 40 48.2292 39.6458 48.9375 38.9375C49.6458 38.2292 50 37.3333 50 36.25C50 35.1667 49.6458 34.2708 48.9375 33.5625C48.2292 32.8542 47.3333 32.5 46.25 32.5H5V27.5H46.25C48.7083 27.5 50.7813 28.3438 52.4688 30.0312C54.1563 31.7188 55 33.7917 55 36.25C55 38.7083 54.1563 40.7812 52.4688 42.4688C50.7813 44.1562 48.7083 45 46.25 45Z" fill="white"/>
</g>
</svg>
